<?xml version="1.0" encoding="UTF-8" standalone="no"?>
<!-- Created with Inkscape (http://www.inkscape.org/) -->

<svg
   xmlns:dc="http://purl.org/dc/elements/1.1/"
   xmlns:cc="http://creativecommons.org/ns#"
   xmlns:rdf="http://www.w3.org/1999/02/22-rdf-syntax-ns#"
   xmlns:svg="http://www.w3.org/2000/svg"
   xmlns="http://www.w3.org/2000/svg"
   xmlns:sodipodi="http://sodipodi.sourceforge.net/DTD/sodipodi-0.dtd"
   xmlns:inkscape="http://www.inkscape.org/namespaces/inkscape"
   width="256"
   height="256"
   viewBox="0 0 67.733331 67.733334"
   version="1.1"
   id="svg8"
   inkscape:version="0.92.4 5da689c313, 2019-01-14"
   sodipodi:docname="2.svg"
   inkscape:export-filename="/home/mega/Downloads/pestrez/pastrezVlist6.png"
   inkscape:export-xdpi="300.13"
   inkscape:export-ydpi="300.13">
  <defs
     id="defs2">
    <clipPath
       clipPathUnits="userSpaceOnUse"
       id="clipPath376">
      <path
         d="M 439.155,211.341 H 622.182 V 148.563 H 439.155 Z"
         id="path374"
         inkscape:connector-curvature="0" />
    </clipPath>
    <clipPath
       clipPathUnits="userSpaceOnUse"
       id="clipPath360">
      <path
         d="M 451.648,98.0918 H 648.649 V 27.7085 H 451.648 Z"
         id="path358"
         inkscape:connector-curvature="0" />
    </clipPath>
  </defs>
  <sodipodi:namedview
     id="base"
     pagecolor="#4c4c4c"
     bordercolor="#666666"
     borderopacity="1.0"
     inkscape:pageopacity="0"
     inkscape:pageshadow="2"
     inkscape:zoom="1.28"
     inkscape:cx="97.009415"
     inkscape:cy="-12.104401"
     inkscape:document-units="mm"
     inkscape:current-layer="g9449"
     showgrid="false"
     inkscape:window-width="1920"
     inkscape:window-height="1018"
     inkscape:window-x="320"
     inkscape:window-y="1112"
     inkscape:window-maximized="1"
     units="px" />
  <metadata
     id="metadata5">
    <rdf:RDF>
      <cc:Work
         rdf:about="">
        <dc:format>image/svg+xml</dc:format>
        <dc:type
           rdf:resource="http://purl.org/dc/dcmitype/StillImage" />
        <dc:title></dc:title>
      </cc:Work>
    </rdf:RDF>
  </metadata>
  <g
     inkscape:label="Layer 1"
     inkscape:groupmode="layer"
     id="layer1"
     transform="translate(107.47122,-222.21732)">
    <g
       id="g9449">
      <text
         id="text4963"
         y="71.524643"
         x="269.77972"
         style="line-height:0%;font-family:Cantarell;-inkscape-font-specification:'Cantarell, Normal';letter-spacing:0.08202086px;word-spacing:-0.29104167px;writing-mode:lr-tb;stroke-width:0.26458332"
         xml:space="preserve"><tspan
           style="font-size:7.05555487px;line-height:0;stroke-width:0.26458332"
           y="71.524643"
           x="269.77972"
           id="tspan4961"
           sodipodi:role="line"> </tspan></text>
      <text
         id="text4967"
         y="111.94916"
         x="300.38208"
         style="line-height:0%;font-family:Cantarell;-inkscape-font-specification:'Cantarell, Normal';letter-spacing:0.08202086px;word-spacing:-0.29104167px;writing-mode:lr-tb;stroke-width:0.26458332"
         xml:space="preserve"><tspan
           style="font-style:normal;font-variant:normal;font-weight:normal;font-stretch:normal;font-size:7.05555534px;line-height:0;font-family:Neckar;-inkscape-font-specification:'Neckar, Normal';font-variant-ligatures:normal;font-variant-caps:normal;font-variant-numeric:normal;font-feature-settings:normal;text-align:start;word-spacing:-0.5185833px;writing-mode:lr-tb;text-anchor:start;stroke-width:0.26458332"
           y="111.94916"
           x="300.38208"
           id="tspan4965"
           sodipodi:role="line"> </tspan></text>
      <flowRoot
         style="line-height:0.01%;font-family:Cantarell;-inkscape-font-specification:'Cantarell, Normal';letter-spacing:0.31000009px;word-spacing:-1.10000002px;writing-mode:lr-tb"
         id="flowRoot20476"
         xml:space="preserve"><flowRegion
           id="flowRegion20478"><rect
             y="130.50426"
             x="1244.5079"
             height="574.17072"
             width="797.61646"
             id="rect20480" /></flowRegion><flowPara
           id="flowPara20482"
           style="font-size:26.66666603px;line-height:0"> </flowPara></flowRoot>      <flowRoot
         style="line-height:0.01%;font-family:Cantarell;-inkscape-font-specification:'Cantarell, Normal';letter-spacing:0.31000009px;word-spacing:-1.10000002px;writing-mode:lr-tb"
         id="flowRoot20492"
         xml:space="preserve"><flowRegion
           id="flowRegion20494"><rect
             y="-2.4318113"
             x="1945.9579"
             height="149.90663"
             width="214.96046"
             id="rect20496" /></flowRegion><flowPara
           id="flowPara20498"
           style="font-size:26.66666603px;line-height:0"> </flowPara></flowRoot>      <text
         id="text9514"
         y="28.013163"
         x="404.76212"
         style="line-height:0%;font-family:Cantarell;-inkscape-font-specification:'Cantarell, Normal';letter-spacing:0.08202086px;word-spacing:-0.29104167px;writing-mode:lr-tb;stroke-width:0.26458332"
         xml:space="preserve"><tspan
           style="font-size:7.05555487px;line-height:0;stroke-width:0.26458332"
           y="28.013163"
           x="404.76212"
           id="tspan9512"
           sodipodi:role="line"> </tspan></text>
      <g
         id="g342"
         transform="matrix(0.26458333,0,0,-0.26458333,-58.734923,248.49164)">
        <path
           d="m 0,0 c 0,0 32.367,21.578 32.367,31.981 -5.395,7.322 -60.495,12.331 -83.229,2.312 z"
           style="fill:#f173ac;fill-opacity:1;fill-rule:nonzero;stroke:none"
           id="path344"
           inkscape:connector-curvature="0" />
      </g>
      <g
         id="g346"
         transform="matrix(0.26458333,0,0,-0.26458333,-95.238773,280.37703)">
        <path
           d="m 0,0 c 36.991,2.312 53.56,14.033 53.56,14.033 0,0 18.025,-7.288 42.106,-7.867 30.28,-0.73 67.948,10.901 71.949,12.715 5.654,2.562 21.964,27.358 20.037,35.45 -1.927,8.091 -24.276,27.743 -35.065,33.523 0.771,9.633 -6.55,40.073 -26.201,54.715 0,0 32.366,21.578 32.366,31.982 -5.394,7.321 -60.495,12.33 -83.229,2.312 0,0 -47.13,11.388 -99.798,4.623 C -24.275,115.541 -18.698,40.787 0,0"
           style="fill:#f287b6;fill-opacity:1;fill-rule:nonzero;stroke:none"
           id="path348"
           inkscape:connector-curvature="0" />
      </g>
      <g
         id="g350"
         transform="matrix(0.26458333,0,0,-0.26458333,-64.474106,252.53223)">
        <path
           d="m 0,0 c 0,-4.364 -3.538,-7.902 -7.902,-7.902 -4.364,0 -7.901,3.538 -7.901,7.902 0,4.364 3.537,7.901 7.901,7.901 C -3.538,7.901 0,4.364 0,0"
           style="fill:#414142;fill-opacity:1;fill-rule:nonzero;stroke:none"
           id="path352"
           inkscape:connector-curvature="0" />
      </g>
      <g
         transform="matrix(0.26458333,0,0,-0.26458333,-217.85454,287.70824)"
         id="g354">
        <g
           id="g356" />
        <g
           id="g368">
          <g
             clip-path="url(#clipPath360)"
             id="g366"
             style="opacity:0.05000311">
            <g
               transform="translate(451.6479,64.4556)"
               id="g364">
              <path
                 d="m 0,0 c 3.171,-13.957 7.056,-26.439 11.782,-36.747 36.99,2.312 53.56,14.033 53.56,14.033 0,0 18.025,-7.288 42.106,-7.868 30.28,-0.729 67.948,10.902 71.949,12.716 3.953,1.791 13.109,14.448 17.604,24.669 C 117.895,42.123 37.399,45.265 0,0"
                 style="fill:#231f20;fill-opacity:1;fill-rule:nonzero;stroke:none"
                 id="path362"
                 inkscape:connector-curvature="0" />
            </g>
          </g>
        </g>
      </g>
      <g
         transform="matrix(0.26458333,0,0,-0.26458333,-217.85454,287.70824)"
         id="g370">
        <g
           id="g372" />
        <g
           id="g384">
          <g
             clip-path="url(#clipPath376)"
             id="g382"
             style="opacity:0.19999701">
            <g
               transform="translate(589.8154,170.2773)"
               id="g380">
              <path
                 d="m 0,0 c 0,0 32.367,21.578 32.367,31.982 -5.395,7.321 -60.496,12.33 -83.229,2.312 0,0 -47.131,11.388 -99.799,4.623 0,-15.182 0.301,-30.83 0.984,-46.424 35.671,4.346 111.346,-12.022 167.06,-14.208 C 13.235,-13.53 7.524,-5.606 0,0"
                 style="fill:#ffffff;fill-opacity:1;fill-rule:nonzero;stroke:none"
                 id="path378"
                 inkscape:connector-curvature="0" />
            </g>
          </g>
        </g>
      </g>
    </g>
  </g>
</svg>
