<?xml version="1.0" encoding="UTF-8" standalone="no"?>
<!-- Created with Inkscape (http://www.inkscape.org/) -->

<svg
   xmlns:dc="http://purl.org/dc/elements/1.1/"
   xmlns:cc="http://creativecommons.org/ns#"
   xmlns:rdf="http://www.w3.org/1999/02/22-rdf-syntax-ns#"
   xmlns:svg="http://www.w3.org/2000/svg"
   xmlns="http://www.w3.org/2000/svg"
   xmlns:sodipodi="http://sodipodi.sourceforge.net/DTD/sodipodi-0.dtd"
   xmlns:inkscape="http://www.inkscape.org/namespaces/inkscape"
   width="256"
   height="256"
   viewBox="0 0 67.733331 67.733334"
   version="1.1"
   id="svg8"
   inkscape:version="0.92.4 5da689c313, 2019-01-14"
   sodipodi:docname="4.svg"
   inkscape:export-filename="/home/mega/Downloads/pestrez/pastrezVlist6.png"
   inkscape:export-xdpi="300.13"
   inkscape:export-ydpi="300.13">
  <defs
     id="defs2">
    <clipPath
       clipPathUnits="userSpaceOnUse"
       id="clipPath376">
      <path
         d="M 439.155,211.341 H 622.182 V 148.563 H 439.155 Z"
         id="path374"
         inkscape:connector-curvature="0" />
    </clipPath>
    <clipPath
       clipPathUnits="userSpaceOnUse"
       id="clipPath360">
      <path
         d="M 451.648,98.0918 H 648.649 V 27.7085 H 451.648 Z"
         id="path358"
         inkscape:connector-curvature="0" />
    </clipPath>
    <clipPath
       clipPathUnits="userSpaceOnUse"
       id="clipPath332">
      <path
         d="M 150.719,190.401 H 298.436 V 28.6133 H 150.719 Z"
         id="path330"
         inkscape:connector-curvature="0" />
    </clipPath>
    <clipPath
       clipPathUnits="userSpaceOnUse"
       id="clipPath304">
      <path
         d="M 111.562,252.282 H 225.738 V 27.8467 H 111.562 Z"
         id="path302"
         inkscape:connector-curvature="0" />
    </clipPath>
    <clipPath
       clipPathUnits="userSpaceOnUse"
       id="clipPath480">
      <path
         d="M 102.233,464.005 H 277.328 V 320.986 H 102.233 Z"
         id="path478"
         inkscape:connector-curvature="0" />
    </clipPath>
    <clipPath
       clipPathUnits="userSpaceOnUse"
       id="clipPath464">
      <path
         d="M 151.24,420.215 H 310.071 V 292.35 H 151.24 Z"
         id="path462"
         inkscape:connector-curvature="0" />
    </clipPath>
  </defs>
  <sodipodi:namedview
     id="base"
     pagecolor="#4c4c4c"
     bordercolor="#666666"
     borderopacity="1.0"
     inkscape:pageopacity="0"
     inkscape:pageshadow="2"
     inkscape:zoom="1.28"
     inkscape:cx="97.009415"
     inkscape:cy="-12.104401"
     inkscape:document-units="mm"
     inkscape:current-layer="g9449"
     showgrid="false"
     inkscape:window-width="1920"
     inkscape:window-height="1018"
     inkscape:window-x="320"
     inkscape:window-y="1112"
     inkscape:window-maximized="1"
     units="px" />
  <metadata
     id="metadata5">
    <rdf:RDF>
      <cc:Work
         rdf:about="">
        <dc:format>image/svg+xml</dc:format>
        <dc:type
           rdf:resource="http://purl.org/dc/dcmitype/StillImage" />
        <dc:title></dc:title>
      </cc:Work>
    </rdf:RDF>
  </metadata>
  <g
     inkscape:label="Layer 1"
     inkscape:groupmode="layer"
     id="layer1"
     transform="translate(107.47122,-222.21732)">
    <g
       id="g9449">
      <text
         id="text4963"
         y="71.524643"
         x="269.77972"
         style="line-height:0%;font-family:Cantarell;-inkscape-font-specification:'Cantarell, Normal';letter-spacing:0.08202086px;word-spacing:-0.29104167px;writing-mode:lr-tb;stroke-width:0.26458332"
         xml:space="preserve"><tspan
           style="font-size:7.05555487px;line-height:0;stroke-width:0.26458332"
           y="71.524643"
           x="269.77972"
           id="tspan4961"
           sodipodi:role="line"> </tspan></text>
      <text
         id="text4967"
         y="111.94916"
         x="300.38208"
         style="line-height:0%;font-family:Cantarell;-inkscape-font-specification:'Cantarell, Normal';letter-spacing:0.08202086px;word-spacing:-0.29104167px;writing-mode:lr-tb;stroke-width:0.26458332"
         xml:space="preserve"><tspan
           style="font-style:normal;font-variant:normal;font-weight:normal;font-stretch:normal;font-size:7.05555534px;line-height:0;font-family:Neckar;-inkscape-font-specification:'Neckar, Normal';font-variant-ligatures:normal;font-variant-caps:normal;font-variant-numeric:normal;font-feature-settings:normal;text-align:start;word-spacing:-0.5185833px;writing-mode:lr-tb;text-anchor:start;stroke-width:0.26458332"
           y="111.94916"
           x="300.38208"
           id="tspan4965"
           sodipodi:role="line"> </tspan></text>
      <flowRoot
         style="line-height:0.01%;font-family:Cantarell;-inkscape-font-specification:'Cantarell, Normal';letter-spacing:0.31000009px;word-spacing:-1.10000002px;writing-mode:lr-tb"
         id="flowRoot20476"
         xml:space="preserve"><flowRegion
           id="flowRegion20478"><rect
             y="130.50426"
             x="1244.5079"
             height="574.17072"
             width="797.61646"
             id="rect20480" /></flowRegion><flowPara
           id="flowPara20482"
           style="font-size:26.66666603px;line-height:0"> </flowPara></flowRoot>      <flowRoot
         style="line-height:0.01%;font-family:Cantarell;-inkscape-font-specification:'Cantarell, Normal';letter-spacing:0.31000009px;word-spacing:-1.10000002px;writing-mode:lr-tb"
         id="flowRoot20492"
         xml:space="preserve"><flowRegion
           id="flowRegion20494"><rect
             y="-2.4318113"
             x="1945.9579"
             height="149.90663"
             width="214.96046"
             id="rect20496" /></flowRegion><flowPara
           id="flowPara20498"
           style="font-size:26.66666603px;line-height:0"> </flowPara></flowRoot>      <text
         id="text9514"
         y="28.013163"
         x="404.76212"
         style="line-height:0%;font-family:Cantarell;-inkscape-font-specification:'Cantarell, Normal';letter-spacing:0.08202086px;word-spacing:-0.29104167px;writing-mode:lr-tb;stroke-width:0.26458332"
         xml:space="preserve"><tspan
           style="font-size:7.05555487px;line-height:0;stroke-width:0.26458332"
           y="28.013163"
           x="404.76212"
           id="tspan9512"
           sodipodi:role="line"> </tspan></text>
      <g
         id="g434"
         transform="matrix(0.26458333,0,0,-0.26458333,-52.931228,245.23547)">
        <path
           d="M 0,0 C -9.941,30.475 -42.987,85.096 -74.792,34.516 -89.994,10.339 0,0 0,0"
           style="fill:#ed1c24;fill-opacity:1;fill-rule:nonzero;stroke:none"
           id="path436"
           inkscape:connector-curvature="0" />
      </g>
      <g
         id="g438"
         transform="matrix(0.26458333,0,0,-0.26458333,-102.17294,269.55195)">
        <path
           d="M 0,0 C 23.43,15.316 53.88,122.871 114.288,126.309 174.696,129.747 215.95,52.664 215.95,52.407 192.375,47.239 139.334,63.445 125.584,49.203 111.832,34.961 124.602,-19.554 138.844,-44.109 71.069,-50.985 16.842,-25.138 0,0"
           style="fill:#fff2be;fill-opacity:1;fill-rule:nonzero;stroke:none"
           id="path440"
           inkscape:connector-curvature="0" />
      </g>
      <g
         id="g442"
         transform="matrix(0.26458333,0,0,-0.26458333,-53.917858,244.10337)">
        <path
           d="m 0,0 c -14.371,-9.734 -26.672,-23.991 -26.09,-41.181 20.559,-1.07 45.454,-5.71 59.658,-2.596 C 33.568,-43.636 21.163,-20.397 0,0"
           style="fill:#ffcb04;fill-opacity:1;fill-rule:nonzero;stroke:none"
           id="path444"
           inkscape:connector-curvature="0" />
      </g>
      <g
         id="g446"
         transform="matrix(0.26458333,0,0,-0.26458333,-66.579228,245.23547)">
        <path
           d="m 0,0 c 0,-3.662 -2.968,-6.63 -6.629,-6.63 -3.663,0 -6.631,2.968 -6.631,6.63 0,3.662 2.968,6.63 6.631,6.63 C -2.968,6.63 0,3.662 0,0"
           style="fill:#414142;fill-opacity:1;fill-rule:nonzero;stroke:none"
           id="path448"
           inkscape:connector-curvature="0" />
      </g>
      <g
         id="g450"
         transform="matrix(0.26458333,0,0,-0.26458333,-52.157138,248.866)">
        <path
           d="m 0,0 c 0,-2.44 -1.978,-4.418 -4.417,-4.418 -2.44,0 -4.417,1.978 -4.417,4.418 0,2.439 1.977,4.417 4.417,4.417 C -1.978,4.417 0,2.439 0,0"
           style="fill:#414142;fill-opacity:1;fill-rule:nonzero;stroke:none"
           id="path452"
           inkscape:connector-curvature="0" />
      </g>
      <g
         id="g454"
         transform="matrix(0.26458333,0,0,-0.26458333,-55.821378,255.68601)">
        <path
           d="M 0,0 C -7.276,1.72 -6.091,-28.651 -30.45,-32.67 -54.809,-36.689 -55.869,-5.538 -33.828,2.505 -11.787,10.548 0,0 0,0"
           style="fill:#ed1c24;fill-opacity:1;fill-rule:nonzero;stroke:none"
           id="path456"
           inkscape:connector-curvature="0" />
      </g>
      <g
         transform="matrix(0.26458333,0,0,-0.26458333,-129.22206,358.87118)"
         id="g458">
        <g
           id="g460" />
        <g
           id="g472">
          <g
             clip-path="url(#clipPath464)"
             id="g470"
             style="opacity:0.05000311">
            <g
               transform="translate(310.0708,389.0298)"
               id="g468">
              <path
                 d="m 0,0 c -76.496,76.008 -148.504,-0.429 -158.831,-85.007 24.34,-9.056 55.324,-14.05 89.837,-10.548 C -83.236,-71 -96.006,-16.484 -82.254,-2.242 -69.912,10.541 -25.93,-1.197 0,0"
                 style="fill:#231f20;fill-opacity:1;fill-rule:nonzero;stroke:none"
                 id="path466"
                 inkscape:connector-curvature="0" />
            </g>
          </g>
        </g>
      </g>
      <g
         transform="matrix(0.26458333,0,0,-0.26458333,-129.22206,358.87118)"
         id="g474">
        <g
           id="g476" />
        <g
           id="g488">
          <g
             clip-path="url(#clipPath480)"
             id="g486"
             style="opacity:0.39999402">
            <g
               transform="translate(277.3281,440.354)"
               id="g484">
              <path
                 d="m 0,0 c -16.451,13.892 -37.161,24.885 -60.807,23.54 -60.408,-3.438 -90.858,-110.994 -114.288,-126.31 3.767,-5.622 9.417,-11.278 16.658,-16.598 C -130.13,-63.516 -90.918,19.252 0,0"
                 style="fill:#ffffff;fill-opacity:1;fill-rule:nonzero;stroke:none"
                 id="path482"
                 inkscape:connector-curvature="0" />
            </g>
          </g>
        </g>
      </g>
    </g>
  </g>
</svg>
