<?xml version="1.0" encoding="UTF-8" standalone="no"?>
<!-- Created with Inkscape (http://www.inkscape.org/) -->

<svg
   xmlns:dc="http://purl.org/dc/elements/1.1/"
   xmlns:cc="http://creativecommons.org/ns#"
   xmlns:rdf="http://www.w3.org/1999/02/22-rdf-syntax-ns#"
   xmlns:svg="http://www.w3.org/2000/svg"
   xmlns="http://www.w3.org/2000/svg"
   xmlns:sodipodi="http://sodipodi.sourceforge.net/DTD/sodipodi-0.dtd"
   xmlns:inkscape="http://www.inkscape.org/namespaces/inkscape"
   width="256"
   height="256"
   viewBox="0 0 67.733331 67.733334"
   version="1.1"
   id="svg8"
   inkscape:version="0.92.4 5da689c313, 2019-01-14"
   sodipodi:docname="5.svg"
   inkscape:export-filename="/home/mega/Downloads/pestrez/pastrezVlist6.png"
   inkscape:export-xdpi="300.13"
   inkscape:export-ydpi="300.13">
  <defs
     id="defs2">
    <clipPath
       clipPathUnits="userSpaceOnUse"
       id="clipPath376">
      <path
         d="M 439.155,211.341 H 622.182 V 148.563 H 439.155 Z"
         id="path374"
         inkscape:connector-curvature="0" />
    </clipPath>
    <clipPath
       clipPathUnits="userSpaceOnUse"
       id="clipPath360">
      <path
         d="M 451.648,98.0918 H 648.649 V 27.7085 H 451.648 Z"
         id="path358"
         inkscape:connector-curvature="0" />
    </clipPath>
    <clipPath
       clipPathUnits="userSpaceOnUse"
       id="clipPath332">
      <path
         d="M 150.719,190.401 H 298.436 V 28.6133 H 150.719 Z"
         id="path330"
         inkscape:connector-curvature="0" />
    </clipPath>
    <clipPath
       clipPathUnits="userSpaceOnUse"
       id="clipPath304">
      <path
         d="M 111.562,252.282 H 225.738 V 27.8467 H 111.562 Z"
         id="path302"
         inkscape:connector-curvature="0" />
    </clipPath>
    <clipPath
       clipPathUnits="userSpaceOnUse"
       id="clipPath480">
      <path
         d="M 102.233,464.005 H 277.328 V 320.986 H 102.233 Z"
         id="path478"
         inkscape:connector-curvature="0" />
    </clipPath>
    <clipPath
       clipPathUnits="userSpaceOnUse"
       id="clipPath464">
      <path
         d="M 151.24,420.215 H 310.071 V 292.35 H 151.24 Z"
         id="path462"
         inkscape:connector-curvature="0" />
    </clipPath>
    <clipPath
       clipPathUnits="userSpaceOnUse"
       id="clipPath284">
      <path
         d="M 509.949,423.313 H 640.813 V 282.349 H 509.949 Z"
         id="path282"
         inkscape:connector-curvature="0" />
    </clipPath>
    <clipPath
       clipPathUnits="userSpaceOnUse"
       id="clipPath252">
      <path
         d="M 449.58,450.136 H 611.43 V 305.081 H 449.58 Z"
         id="path250"
         inkscape:connector-curvature="0" />
    </clipPath>
  </defs>
  <sodipodi:namedview
     id="base"
     pagecolor="#4c4c4c"
     bordercolor="#666666"
     borderopacity="1.0"
     inkscape:pageopacity="0"
     inkscape:pageshadow="2"
     inkscape:zoom="1.28"
     inkscape:cx="97.009415"
     inkscape:cy="-12.104401"
     inkscape:document-units="mm"
     inkscape:current-layer="g9449"
     showgrid="false"
     inkscape:window-width="1920"
     inkscape:window-height="1018"
     inkscape:window-x="320"
     inkscape:window-y="1112"
     inkscape:window-maximized="1"
     units="px" />
  <metadata
     id="metadata5">
    <rdf:RDF>
      <cc:Work
         rdf:about="">
        <dc:format>image/svg+xml</dc:format>
        <dc:type
           rdf:resource="http://purl.org/dc/dcmitype/StillImage" />
        <dc:title></dc:title>
      </cc:Work>
    </rdf:RDF>
  </metadata>
  <g
     inkscape:label="Layer 1"
     inkscape:groupmode="layer"
     id="layer1"
     transform="translate(107.47122,-222.21732)">
    <g
       id="g9449">
      <text
         id="text4963"
         y="71.524643"
         x="269.77972"
         style="line-height:0%;font-family:Cantarell;-inkscape-font-specification:'Cantarell, Normal';letter-spacing:0.08202086px;word-spacing:-0.29104167px;writing-mode:lr-tb;stroke-width:0.26458332"
         xml:space="preserve"><tspan
           style="font-size:7.05555487px;line-height:0;stroke-width:0.26458332"
           y="71.524643"
           x="269.77972"
           id="tspan4961"
           sodipodi:role="line"> </tspan></text>
      <text
         id="text4967"
         y="111.94916"
         x="300.38208"
         style="line-height:0%;font-family:Cantarell;-inkscape-font-specification:'Cantarell, Normal';letter-spacing:0.08202086px;word-spacing:-0.29104167px;writing-mode:lr-tb;stroke-width:0.26458332"
         xml:space="preserve"><tspan
           style="font-style:normal;font-variant:normal;font-weight:normal;font-stretch:normal;font-size:7.05555534px;line-height:0;font-family:Neckar;-inkscape-font-specification:'Neckar, Normal';font-variant-ligatures:normal;font-variant-caps:normal;font-variant-numeric:normal;font-feature-settings:normal;text-align:start;word-spacing:-0.5185833px;writing-mode:lr-tb;text-anchor:start;stroke-width:0.26458332"
           y="111.94916"
           x="300.38208"
           id="tspan4965"
           sodipodi:role="line"> </tspan></text>
      <flowRoot
         style="line-height:0.01%;font-family:Cantarell;-inkscape-font-specification:'Cantarell, Normal';letter-spacing:0.31000009px;word-spacing:-1.10000002px;writing-mode:lr-tb"
         id="flowRoot20476"
         xml:space="preserve"><flowRegion
           id="flowRegion20478"><rect
             y="130.50426"
             x="1244.5079"
             height="574.17072"
             width="797.61646"
             id="rect20480" /></flowRegion><flowPara
           id="flowPara20482"
           style="font-size:26.66666603px;line-height:0"> </flowPara></flowRoot>      <flowRoot
         style="line-height:0.01%;font-family:Cantarell;-inkscape-font-specification:'Cantarell, Normal';letter-spacing:0.31000009px;word-spacing:-1.10000002px;writing-mode:lr-tb"
         id="flowRoot20492"
         xml:space="preserve"><flowRegion
           id="flowRegion20494"><rect
             y="-2.4318113"
             x="1945.9579"
             height="149.90663"
             width="214.96046"
             id="rect20496" /></flowRegion><flowPara
           id="flowPara20498"
           style="font-size:26.66666603px;line-height:0"> </flowPara></flowRoot>      <text
         id="text9514"
         y="28.013163"
         x="404.76212"
         style="line-height:0%;font-family:Cantarell;-inkscape-font-specification:'Cantarell, Normal';letter-spacing:0.08202086px;word-spacing:-0.29104167px;writing-mode:lr-tb;stroke-width:0.26458332"
         xml:space="preserve"><tspan
           style="font-size:7.05555487px;line-height:0;stroke-width:0.26458332"
           y="28.013163"
           x="404.76212"
           id="tspan9512"
           sodipodi:role="line"> </tspan></text>
      <g
         id="g238"
         transform="matrix(0.26458333,0,0,-0.26458333,-53.554484,250.79298)">
        <path
           d="m 0,0 c -10.754,-4.347 -0.286,-20.512 -4.14,-36.782 -3.853,-16.269 -20.551,-22.084 -29.542,-17.678 -8.991,4.406 -13.185,26.777 10.961,44.492 C 1.426,7.747 0,0 0,0"
           style="fill:#ed1c24;fill-opacity:1;fill-rule:nonzero;stroke:none"
           id="path240"
           inkscape:connector-curvature="0" />
      </g>
      <g
         id="g242"
         transform="matrix(0.26458333,0,0,-0.26458333,-98.903138,276.12088)">
        <path
           d="m 0,0 c 18.581,55.744 73.324,125.98 126.031,131.222 30.95,3.078 65.202,-29.35 65.202,-29.35 -21.835,-5.677 -58.228,-18.423 -64.222,-40.736 -5.994,-22.313 9.078,-33.873 21.665,-39.867 7.021,-17.126 6.593,-45.812 3.596,-56.516 C 55.509,-42.097 12.994,-15.703 0,0"
           style="fill:#fff2be;fill-opacity:1;fill-rule:nonzero;stroke:none"
           id="path244"
           inkscape:connector-curvature="0" />
      </g>
      <g
         id="g246"
         transform="matrix(0.26458333,0,0,-0.26458333,-217.85454,360.44583)">
        <g
           id="g248" />
        <g
           id="g260">
          <g
             clip-path="url(#clipPath252)"
             id="g258"
             style="opacity:0.39999402">
            <g
               transform="translate(575.6108,449.9302)"
               id="g256">
              <path
                 d="m 0,0 c -52.707,-5.242 -107.45,-75.478 -126.031,-131.222 3.375,-4.078 8.747,-8.878 16.536,-13.628 23.512,64.991 63.623,133.099 145.314,136.1 C 24.896,-3.093 12.195,1.213 0,0"
                 style="fill:#ffffff;fill-opacity:1;fill-rule:nonzero;stroke:none"
                 id="path254"
                 inkscape:connector-curvature="0" />
            </g>
          </g>
        </g>
      </g>
      <g
         id="g262"
         transform="matrix(0.26458333,0,0,-0.26458333,-56.493211,243.50466)">
        <path
           d="m 0,0 c -8.014,-9.568 -12.193,-21.643 -4.99,-34.438 12.069,6.097 25.623,10.355 35.934,13.036 0,0 -13.366,12.653 -30.944,21.402"
           style="fill:#ffcb04;fill-opacity:1;fill-rule:nonzero;stroke:none"
           id="path264"
           inkscape:connector-curvature="0" />
      </g>
      <g
         id="g266"
         transform="matrix(0.26458333,0,0,-0.26458333,-54.094763,244.83726)">
        <path
           d="m 0,0 c 21.451,9.641 -16.227,57.594 -42.344,69.582 0.484,-6.179 -0.898,-16.735 -8.169,-17.554 -10.186,-1.148 -4.598,14.265 -21.373,17.554 2.883,-8.064 1.285,-17.982 -4.281,-17.982 -5.567,0 -13.702,14.128 -22.693,14.984 4.6,-10.435 4.967,-16.998 0,-20.979 -3.194,-2.56 -11.988,-0.856 -17.126,3.426 -3.853,-17.126 11.295,-47.51 47.82,-43.022 C -31.64,10.497 0,0 0,0"
           style="fill:#ed1c24;fill-opacity:1;fill-rule:nonzero;stroke:none"
           id="path268"
           inkscape:connector-curvature="0" />
      </g>
      <g
         id="g270"
         transform="matrix(0.26458333,0,0,-0.26458333,-62.959998,246.24079)">
        <path
           d="m 0,0 c 0,-4.138 -3.354,-7.492 -7.492,-7.492 -4.138,0 -7.493,3.354 -7.493,7.492 0,4.138 3.355,7.492 7.493,7.492 C -3.354,7.492 0,4.138 0,0"
           style="fill:#414142;fill-opacity:1;fill-rule:nonzero;stroke:none"
           id="path272"
           inkscape:connector-curvature="0" />
      </g>
      <g
         id="g274"
         transform="matrix(0.26458333,0,0,-0.26458333,-53.550224,247.03311)">
        <path
           d="m 0,0 c 0,-1.654 -1.341,-2.995 -2.995,-2.995 -1.653,0 -2.994,1.341 -2.994,2.995 0,1.654 1.341,2.995 2.994,2.995 C -1.341,2.995 0,1.654 0,0"
           style="fill:#414142;fill-opacity:1;fill-rule:nonzero;stroke:none"
           id="path276"
           inkscape:connector-curvature="0" />
      </g>
      <g
         id="g278"
         transform="matrix(0.26458333,0,0,-0.26458333,-217.85454,360.44583)">
        <g
           id="g280" />
        <g
           id="g292">
          <g
             clip-path="url(#clipPath284)"
             id="g290"
             style="opacity:0.05000311">
            <g
               transform="translate(640.8135,420.5801)"
               id="g288">
              <path
                 d="m 0,0 c 0,0 -0.214,0.201 -0.583,0.537 -69.187,15.926 -113.039,-57.468 -130.282,-132.672 22.961,-5.123 53.056,-7.734 91.904,-4.984 2.997,10.704 3.424,39.39 -3.597,56.516 -12.587,5.994 -27.659,17.554 -21.665,39.867 C -58.229,-18.422 -21.835,-5.676 0,0"
                 style="fill:#231f20;fill-opacity:1;fill-rule:nonzero;stroke:none"
                 id="path286"
                 inkscape:connector-curvature="0" />
            </g>
          </g>
        </g>
      </g>
    </g>
  </g>
</svg>
