<?xml version="1.0" encoding="UTF-8" standalone="no"?>
<!-- Created with Inkscape (http://www.inkscape.org/) -->

<svg
   xmlns:dc="http://purl.org/dc/elements/1.1/"
   xmlns:cc="http://creativecommons.org/ns#"
   xmlns:rdf="http://www.w3.org/1999/02/22-rdf-syntax-ns#"
   xmlns:svg="http://www.w3.org/2000/svg"
   xmlns="http://www.w3.org/2000/svg"
   xmlns:sodipodi="http://sodipodi.sourceforge.net/DTD/sodipodi-0.dtd"
   xmlns:inkscape="http://www.inkscape.org/namespaces/inkscape"
   width="256"
   height="256"
   viewBox="0 0 67.733331 67.733334"
   version="1.1"
   id="svg8"
   inkscape:version="0.92.4 5da689c313, 2019-01-14"
   sodipodi:docname="7.svg"
   inkscape:export-filename="/home/mega/Downloads/pestrez/pastrezVlist6.png"
   inkscape:export-xdpi="300.13"
   inkscape:export-ydpi="300.13">
  <defs
     id="defs2">
    <clipPath
       clipPathUnits="userSpaceOnUse"
       id="clipPath376">
      <path
         d="M 439.155,211.341 H 622.182 V 148.563 H 439.155 Z"
         id="path374"
         inkscape:connector-curvature="0" />
    </clipPath>
    <clipPath
       clipPathUnits="userSpaceOnUse"
       id="clipPath360">
      <path
         d="M 451.648,98.0918 H 648.649 V 27.7085 H 451.648 Z"
         id="path358"
         inkscape:connector-curvature="0" />
    </clipPath>
    <clipPath
       clipPathUnits="userSpaceOnUse"
       id="clipPath332">
      <path
         d="M 150.719,190.401 H 298.436 V 28.6133 H 150.719 Z"
         id="path330"
         inkscape:connector-curvature="0" />
    </clipPath>
    <clipPath
       clipPathUnits="userSpaceOnUse"
       id="clipPath304">
      <path
         d="M 111.562,252.282 H 225.738 V 27.8467 H 111.562 Z"
         id="path302"
         inkscape:connector-curvature="0" />
    </clipPath>
    <clipPath
       clipPathUnits="userSpaceOnUse"
       id="clipPath480">
      <path
         d="M 102.233,464.005 H 277.328 V 320.986 H 102.233 Z"
         id="path478"
         inkscape:connector-curvature="0" />
    </clipPath>
    <clipPath
       clipPathUnits="userSpaceOnUse"
       id="clipPath464">
      <path
         d="M 151.24,420.215 H 310.071 V 292.35 H 151.24 Z"
         id="path462"
         inkscape:connector-curvature="0" />
    </clipPath>
    <clipPath
       clipPathUnits="userSpaceOnUse"
       id="clipPath284">
      <path
         d="M 509.949,423.313 H 640.813 V 282.349 H 509.949 Z"
         id="path282"
         inkscape:connector-curvature="0" />
    </clipPath>
    <clipPath
       clipPathUnits="userSpaceOnUse"
       id="clipPath252">
      <path
         d="M 449.58,450.136 H 611.43 V 305.081 H 449.58 Z"
         id="path250"
         inkscape:connector-curvature="0" />
    </clipPath>
    <clipPath
       clipPathUnits="userSpaceOnUse"
       id="clipPath424">
      <path
         d="M 785.318,493.44 H 906.564 V 292.468 H 785.318 Z"
         id="path422"
         inkscape:connector-curvature="0" />
    </clipPath>
    <clipPath
       clipPathUnits="userSpaceOnUse"
       id="clipPath408">
      <path
         d="M 833.697,434.733 H 943.555 V 295.06 H 833.697 Z"
         id="path406"
         inkscape:connector-curvature="0" />
    </clipPath>
    <clipPath
       clipPathUnits="userSpaceOnUse"
       id="clipPath228">
      <path
         d="M 128.107,631.673 H 324.886 V 529.404 H 128.107 Z"
         id="path226"
         inkscape:connector-curvature="0" />
    </clipPath>
    <clipPath
       clipPathUnits="userSpaceOnUse"
       id="clipPath200">
      <path
         d="M 95.4766,762.292 H 247.998 V 621.337 H 95.4766 Z"
         id="path198"
         inkscape:connector-curvature="0" />
    </clipPath>
  </defs>
  <sodipodi:namedview
     id="base"
     pagecolor="#4c4c4c"
     bordercolor="#666666"
     borderopacity="1.0"
     inkscape:pageopacity="0"
     inkscape:pageshadow="2"
     inkscape:zoom="1.28"
     inkscape:cx="97.009415"
     inkscape:cy="-12.104401"
     inkscape:document-units="mm"
     inkscape:current-layer="g9449"
     showgrid="false"
     inkscape:window-width="1920"
     inkscape:window-height="1018"
     inkscape:window-x="320"
     inkscape:window-y="1112"
     inkscape:window-maximized="1"
     units="px" />
  <metadata
     id="metadata5">
    <rdf:RDF>
      <cc:Work
         rdf:about="">
        <dc:format>image/svg+xml</dc:format>
        <dc:type
           rdf:resource="http://purl.org/dc/dcmitype/StillImage" />
        <dc:title></dc:title>
      </cc:Work>
    </rdf:RDF>
  </metadata>
  <g
     inkscape:label="Layer 1"
     inkscape:groupmode="layer"
     id="layer1"
     transform="translate(107.47122,-222.21732)">
    <g
       id="g9449">
      <text
         id="text4963"
         y="71.524643"
         x="269.77972"
         style="line-height:0%;font-family:Cantarell;-inkscape-font-specification:'Cantarell, Normal';letter-spacing:0.08202086px;word-spacing:-0.29104167px;writing-mode:lr-tb;stroke-width:0.26458332"
         xml:space="preserve"><tspan
           style="font-size:7.05555487px;line-height:0;stroke-width:0.26458332"
           y="71.524643"
           x="269.77972"
           id="tspan4961"
           sodipodi:role="line"> </tspan></text>
      <text
         id="text4967"
         y="111.94916"
         x="300.38208"
         style="line-height:0%;font-family:Cantarell;-inkscape-font-specification:'Cantarell, Normal';letter-spacing:0.08202086px;word-spacing:-0.29104167px;writing-mode:lr-tb;stroke-width:0.26458332"
         xml:space="preserve"><tspan
           style="font-style:normal;font-variant:normal;font-weight:normal;font-stretch:normal;font-size:7.05555534px;line-height:0;font-family:Neckar;-inkscape-font-specification:'Neckar, Normal';font-variant-ligatures:normal;font-variant-caps:normal;font-variant-numeric:normal;font-feature-settings:normal;text-align:start;word-spacing:-0.5185833px;writing-mode:lr-tb;text-anchor:start;stroke-width:0.26458332"
           y="111.94916"
           x="300.38208"
           id="tspan4965"
           sodipodi:role="line"> </tspan></text>
      <flowRoot
         style="line-height:0.01%;font-family:Cantarell;-inkscape-font-specification:'Cantarell, Normal';letter-spacing:0.31000009px;word-spacing:-1.10000002px;writing-mode:lr-tb"
         id="flowRoot20476"
         xml:space="preserve"><flowRegion
           id="flowRegion20478"><rect
             y="130.50426"
             x="1244.5079"
             height="574.17072"
             width="797.61646"
             id="rect20480" /></flowRegion><flowPara
           id="flowPara20482"
           style="font-size:26.66666603px;line-height:0"> </flowPara></flowRoot>      <flowRoot
         style="line-height:0.01%;font-family:Cantarell;-inkscape-font-specification:'Cantarell, Normal';letter-spacing:0.31000009px;word-spacing:-1.10000002px;writing-mode:lr-tb"
         id="flowRoot20492"
         xml:space="preserve"><flowRegion
           id="flowRegion20494"><rect
             y="-2.4318113"
             x="1945.9579"
             height="149.90663"
             width="214.96046"
             id="rect20496" /></flowRegion><flowPara
           id="flowPara20498"
           style="font-size:26.66666603px;line-height:0"> </flowPara></flowRoot>      <text
         id="text9514"
         y="28.013163"
         x="404.76212"
         style="line-height:0%;font-family:Cantarell;-inkscape-font-specification:'Cantarell, Normal';letter-spacing:0.08202086px;word-spacing:-0.29104167px;writing-mode:lr-tb;stroke-width:0.26458332"
         xml:space="preserve"><tspan
           style="font-size:7.05555487px;line-height:0;stroke-width:0.26458332"
           y="28.013163"
           x="404.76212"
           id="tspan9512"
           sodipodi:role="line"> </tspan></text>
      <g
         id="g186"
         transform="matrix(0.26458333,0,0,-0.26458333,-78.728876,239.86438)">
        <path
           d="m 0,0 c 10.069,15.613 31.883,44.652 36.557,44.083 1.729,-0.21 5.566,-4.661 5.427,-15.425 C 41.867,19.639 39.635,6.416 34.142,0.052 Z"
           style="fill:#c6a87d;fill-opacity:1;fill-rule:nonzero;stroke:none"
           id="path188"
           inkscape:connector-curvature="0" />
      </g>
      <g
         id="g190"
         transform="matrix(0.26458333,0,0,-0.26458333,-103.96053,253.85669)">
        <path
           d="m 0,0 c 19.906,17.584 71.515,43.135 79.625,59.85 8.109,16.715 26.256,48.175 30.964,48.175 1.743,0 6.089,-3.954 7.251,-14.656 0.973,-8.967 0.355,-22.363 -4.33,-29.344 23.843,-7.629 31.471,-28.419 54.169,-46.348 22.696,-17.929 55.121,-35.667 60.652,-56.266 5.532,-20.599 -10.75,-27.773 -15.867,-28.928 -15.148,-3.419 -30.268,5.519 -41.203,5.064 -14.542,-0.606 -41.827,-7.107 -65.013,7.877 -5.16,-23.082 -15.79,-46.366 -27.692,-70.286 C 38.868,-114.865 1.426,-32.374 0,0"
           style="fill:#d2bb98;fill-opacity:1;fill-rule:nonzero;stroke:none"
           id="path192"
           inkscape:connector-curvature="0" />
      </g>
      <g
         id="g194"
         transform="matrix(0.26458333,0,0,-0.26458333,-129.22205,426.96459)">
        <g
           id="g196" />
        <g
           id="g208">
          <g
             clip-path="url(#clipPath200)"
             id="g206"
             style="opacity:0.19999701">
            <g
               transform="translate(103.1855,621.3369)"
               id="g204">
              <path
                 d="m 0,0 c 33.474,33.609 91.083,64.939 144.813,64.849 -12.583,13.581 -21.351,26.454 -39.012,32.105 4.685,6.982 5.303,20.378 4.33,29.344 -1.162,10.702 -5.508,14.657 -7.251,14.657 -4.708,0 -22.855,-31.461 -30.964,-48.176 C 63.806,76.064 12.197,50.513 -7.709,32.929 -7.341,24.584 -4.576,12.905 0,0"
                 style="fill:#ffffff;fill-opacity:1;fill-rule:nonzero;stroke:none"
                 id="path202"
                 inkscape:connector-curvature="0" />
            </g>
          </g>
        </g>
      </g>
      <g
         id="g210"
         transform="matrix(0.26458333,0,0,-0.26458333,-83.286486,238.68357)">
        <path
           d="m 0,0 c -4.45,-6.809 -19.815,-42.392 -9.88,-58.565 -4.736,2.426 -12.939,11.784 -5.314,34.081 -8.087,-14.557 -25.763,-36.622 -14.556,-49.561 -14.673,7.856 -10.86,26.57 -4.16,34.195 -15.365,-12.708 -22.412,-32.578 -15.365,-44.94 -7.971,9.127 -15.249,20.795 -6.007,33.272 -9.126,-8.664 -19.639,-23.683 -8.664,-38.47 -8.854,6.793 -18.254,18.947 -9.821,37.317 C -65.479,-34.622 -11.377,-13.41 0,0"
           style="fill:#69502e;fill-opacity:1;fill-rule:nonzero;stroke:none"
           id="path212"
           inkscape:connector-curvature="0" />
      </g>
      <g
         id="g214"
         transform="matrix(0.26458333,0,0,-0.26458333,-68.934506,247.5891)">
        <path
           d="m 0,0 c 0,-4.462 -3.617,-8.079 -8.079,-8.079 -4.462,0 -8.079,3.617 -8.079,8.079 0,4.461 3.617,8.079 8.079,8.079 C -3.617,8.079 0,4.461 0,0"
           style="fill:#414142;fill-opacity:1;fill-rule:nonzero;stroke:none"
           id="path216"
           inkscape:connector-curvature="0" />
      </g>
      <g
         id="g218"
         transform="matrix(0.26458333,0,0,-0.26458333,-46.971258,264.6895)">
        <path
           d="m 0,0 c 0,-2.455 -1.989,-4.444 -4.444,-4.444 -2.453,0 -4.443,1.989 -4.443,4.444 0,2.454 1.99,4.443 4.443,4.443 C -1.989,4.443 0,2.454 0,0"
           style="fill:#414142;fill-opacity:1;fill-rule:nonzero;stroke:none"
           id="path220"
           inkscape:connector-curvature="0" />
      </g>
      <g
         id="g222"
         transform="matrix(0.26458333,0,0,-0.26458333,-129.22205,426.96459)">
        <g
           id="g224" />
        <g
           id="g236">
          <g
             clip-path="url(#clipPath228)"
             id="g234"
             style="opacity:0.05000311">
            <g
               transform="translate(307.9404,586.749)"
               id="g232">
              <path
                 d="m 0,0 c 4.244,0.958 16.153,6.064 16.945,19.523 -86.407,51.237 -160.944,17.565 -196.778,-35.586 13.3,-20.42 29.417,-37.124 45.925,-41.282 11.903,23.92 22.532,47.204 27.692,70.286 C -83.03,-2.042 -55.745,4.458 -41.203,5.064 -30.268,5.52 -15.148,-3.419 0,0"
                 style="fill:#231f20;fill-opacity:1;fill-rule:nonzero;stroke:none"
                 id="path230"
                 inkscape:connector-curvature="0" />
            </g>
          </g>
        </g>
      </g>
    </g>
  </g>
</svg>
