<?xml version="1.0" encoding="UTF-8" standalone="no"?>
<!-- Created with Inkscape (http://www.inkscape.org/) -->

<svg
   xmlns:dc="http://purl.org/dc/elements/1.1/"
   xmlns:cc="http://creativecommons.org/ns#"
   xmlns:rdf="http://www.w3.org/1999/02/22-rdf-syntax-ns#"
   xmlns:svg="http://www.w3.org/2000/svg"
   xmlns="http://www.w3.org/2000/svg"
   xmlns:sodipodi="http://sodipodi.sourceforge.net/DTD/sodipodi-0.dtd"
   xmlns:inkscape="http://www.inkscape.org/namespaces/inkscape"
   width="256"
   height="256"
   viewBox="0 0 67.733331 67.733334"
   version="1.1"
   id="svg8"
   inkscape:version="0.92.4 5da689c313, 2019-01-14"
   sodipodi:docname="8.svg"
   inkscape:export-filename="/home/mega/Downloads/pestrez/pastrezVlist6.png"
   inkscape:export-xdpi="300.13"
   inkscape:export-ydpi="300.13">
  <defs
     id="defs2">
    <clipPath
       clipPathUnits="userSpaceOnUse"
       id="clipPath376">
      <path
         d="M 439.155,211.341 H 622.182 V 148.563 H 439.155 Z"
         id="path374"
         inkscape:connector-curvature="0" />
    </clipPath>
    <clipPath
       clipPathUnits="userSpaceOnUse"
       id="clipPath360">
      <path
         d="M 451.648,98.0918 H 648.649 V 27.7085 H 451.648 Z"
         id="path358"
         inkscape:connector-curvature="0" />
    </clipPath>
    <clipPath
       clipPathUnits="userSpaceOnUse"
       id="clipPath332">
      <path
         d="M 150.719,190.401 H 298.436 V 28.6133 H 150.719 Z"
         id="path330"
         inkscape:connector-curvature="0" />
    </clipPath>
    <clipPath
       clipPathUnits="userSpaceOnUse"
       id="clipPath304">
      <path
         d="M 111.562,252.282 H 225.738 V 27.8467 H 111.562 Z"
         id="path302"
         inkscape:connector-curvature="0" />
    </clipPath>
    <clipPath
       clipPathUnits="userSpaceOnUse"
       id="clipPath480">
      <path
         d="M 102.233,464.005 H 277.328 V 320.986 H 102.233 Z"
         id="path478"
         inkscape:connector-curvature="0" />
    </clipPath>
    <clipPath
       clipPathUnits="userSpaceOnUse"
       id="clipPath464">
      <path
         d="M 151.24,420.215 H 310.071 V 292.35 H 151.24 Z"
         id="path462"
         inkscape:connector-curvature="0" />
    </clipPath>
    <clipPath
       clipPathUnits="userSpaceOnUse"
       id="clipPath284">
      <path
         d="M 509.949,423.313 H 640.813 V 282.349 H 509.949 Z"
         id="path282"
         inkscape:connector-curvature="0" />
    </clipPath>
    <clipPath
       clipPathUnits="userSpaceOnUse"
       id="clipPath252">
      <path
         d="M 449.58,450.136 H 611.43 V 305.081 H 449.58 Z"
         id="path250"
         inkscape:connector-curvature="0" />
    </clipPath>
    <clipPath
       clipPathUnits="userSpaceOnUse"
       id="clipPath424">
      <path
         d="M 785.318,493.44 H 906.564 V 292.468 H 785.318 Z"
         id="path422"
         inkscape:connector-curvature="0" />
    </clipPath>
    <clipPath
       clipPathUnits="userSpaceOnUse"
       id="clipPath408">
      <path
         d="M 833.697,434.733 H 943.555 V 295.06 H 833.697 Z"
         id="path406"
         inkscape:connector-curvature="0" />
    </clipPath>
    <clipPath
       clipPathUnits="userSpaceOnUse"
       id="clipPath228">
      <path
         d="M 128.107,631.673 H 324.886 V 529.404 H 128.107 Z"
         id="path226"
         inkscape:connector-curvature="0" />
    </clipPath>
    <clipPath
       clipPathUnits="userSpaceOnUse"
       id="clipPath200">
      <path
         d="M 95.4766,762.292 H 247.998 V 621.337 H 95.4766 Z"
         id="path198"
         inkscape:connector-curvature="0" />
    </clipPath>
    <clipPath
       clipPathUnits="userSpaceOnUse"
       id="clipPath424-3">
      <path
         d="M 785.318,493.44 H 906.564 V 292.468 H 785.318 Z"
         id="path422-5"
         inkscape:connector-curvature="0" />
    </clipPath>
    <clipPath
       clipPathUnits="userSpaceOnUse"
       id="clipPath408-6">
      <path
         d="M 833.697,434.733 H 943.555 V 295.06 H 833.697 Z"
         id="path406-2"
         inkscape:connector-curvature="0" />
    </clipPath>
    <clipPath
       clipPathUnits="userSpaceOnUse"
       id="clipPath176">
      <path
         d="M 468.497,645.694 H 652.158 V 529.404 H 468.497 Z"
         id="path174"
         inkscape:connector-curvature="0" />
    </clipPath>
    <clipPath
       clipPathUnits="userSpaceOnUse"
       id="clipPath148">
      <path
         d="M 439.44,713.766 H 627.456 V 614.131 H 439.44 Z"
         id="path146"
         inkscape:connector-curvature="0" />
    </clipPath>
  </defs>
  <sodipodi:namedview
     id="base"
     pagecolor="#4c4c4c"
     bordercolor="#666666"
     borderopacity="1.0"
     inkscape:pageopacity="0"
     inkscape:pageshadow="2"
     inkscape:zoom="1.28"
     inkscape:cx="97.009415"
     inkscape:cy="81.645599"
     inkscape:document-units="mm"
     inkscape:current-layer="g9449"
     showgrid="false"
     inkscape:window-width="1920"
     inkscape:window-height="1018"
     inkscape:window-x="320"
     inkscape:window-y="1112"
     inkscape:window-maximized="1"
     units="px" />
  <metadata
     id="metadata5">
    <rdf:RDF>
      <cc:Work
         rdf:about="">
        <dc:format>image/svg+xml</dc:format>
        <dc:type
           rdf:resource="http://purl.org/dc/dcmitype/StillImage" />
        <dc:title></dc:title>
      </cc:Work>
    </rdf:RDF>
  </metadata>
  <g
     inkscape:label="Layer 1"
     inkscape:groupmode="layer"
     id="layer1"
     transform="translate(107.47122,-222.21732)">
    <g
       id="g9449">
      <text
         id="text4963"
         y="71.524643"
         x="269.77972"
         style="line-height:0%;font-family:Cantarell;-inkscape-font-specification:'Cantarell, Normal';letter-spacing:0.08202086px;word-spacing:-0.29104167px;writing-mode:lr-tb;stroke-width:0.26458332"
         xml:space="preserve"><tspan
           style="font-size:7.05555487px;line-height:0;stroke-width:0.26458332"
           y="71.524643"
           x="269.77972"
           id="tspan4961"
           sodipodi:role="line"> </tspan></text>
      <text
         id="text4967"
         y="111.94916"
         x="300.38208"
         style="line-height:0%;font-family:Cantarell;-inkscape-font-specification:'Cantarell, Normal';letter-spacing:0.08202086px;word-spacing:-0.29104167px;writing-mode:lr-tb;stroke-width:0.26458332"
         xml:space="preserve"><tspan
           style="font-style:normal;font-variant:normal;font-weight:normal;font-stretch:normal;font-size:7.05555534px;line-height:0;font-family:Neckar;-inkscape-font-specification:'Neckar, Normal';font-variant-ligatures:normal;font-variant-caps:normal;font-variant-numeric:normal;font-feature-settings:normal;text-align:start;word-spacing:-0.5185833px;writing-mode:lr-tb;text-anchor:start;stroke-width:0.26458332"
           y="111.94916"
           x="300.38208"
           id="tspan4965"
           sodipodi:role="line"> </tspan></text>
      <flowRoot
         style="line-height:0.01%;font-family:Cantarell;-inkscape-font-specification:'Cantarell, Normal';letter-spacing:0.31000009px;word-spacing:-1.10000002px;writing-mode:lr-tb"
         id="flowRoot20476"
         xml:space="preserve"><flowRegion
           id="flowRegion20478"><rect
             y="130.50426"
             x="1244.5079"
             height="574.17072"
             width="797.61646"
             id="rect20480" /></flowRegion><flowPara
           id="flowPara20482"
           style="font-size:26.66666603px;line-height:0"> </flowPara></flowRoot>      <flowRoot
         style="line-height:0.01%;font-family:Cantarell;-inkscape-font-specification:'Cantarell, Normal';letter-spacing:0.31000009px;word-spacing:-1.10000002px;writing-mode:lr-tb"
         id="flowRoot20492"
         xml:space="preserve"><flowRegion
           id="flowRegion20494"><rect
             y="-2.4318113"
             x="1945.9579"
             height="149.90663"
             width="214.96046"
             id="rect20496" /></flowRegion><flowPara
           id="flowPara20498"
           style="font-size:26.66666603px;line-height:0"> </flowPara></flowRoot>      <text
         id="text9514"
         y="28.013163"
         x="404.76212"
         style="line-height:0%;font-family:Cantarell;-inkscape-font-specification:'Cantarell, Normal';letter-spacing:0.08202086px;word-spacing:-0.29104167px;writing-mode:lr-tb;stroke-width:0.26458332"
         xml:space="preserve"><tspan
           style="font-size:7.05555487px;line-height:0;stroke-width:0.26458332"
           y="28.013163"
           x="404.76212"
           id="tspan9512"
           sodipodi:role="line"> </tspan></text>
      <g
         id="g134"
         transform="matrix(0.26458333,0,0,-0.26458333,-83.834875,242.27796)">
        <path
           d="M 0,0 C -16.219,29.953 -56.031,46.941 -67.09,38.86 -75.469,32.738 -64.084,12.168 -46.447,0 -28.81,-12.168 -11.796,-12.809 -11.796,-12.809 Z"
           style="fill:#efe2b3;fill-opacity:1;fill-rule:nonzero;stroke:none"
           id="path136"
           inkscape:connector-curvature="0" />
      </g>
      <g
         id="g138"
         transform="matrix(0.26458333,0,0,-0.26458333,-101.58587,256.98083)">
        <path
           d="m 0,0 c 8.11,-42.761 48.659,-104.691 72.251,-104.691 5.161,27.278 48.947,67.744 77.188,67.418 28.241,-0.327 43.724,-1.756 51.096,7.174 7.372,8.93 21.885,25.676 7.993,44.107 C 194.637,32.439 128.283,79.718 98.056,79.671 67.828,79.624 9.584,16.957 0,0"
           style="fill:#fff2be;fill-opacity:1;fill-rule:nonzero;stroke:none"
           id="path140"
           inkscape:connector-curvature="0" />
      </g>
      <g
         id="g142"
         transform="matrix(0.26458333,0,0,-0.26458333,-217.85448,424.75172)">
        <g
           id="g144" />
        <g
           id="g156">
          <g
             clip-path="url(#clipPath148)"
             id="g154"
             style="opacity:0.39999402">
            <g
               transform="translate(627.4561,667.4673)"
               id="g152">
              <path
                 d="m 0,0 c -26.079,20.843 -67.761,46.333 -89.96,46.298 -30.228,-0.047 -88.471,-62.714 -98.056,-79.671 1.199,-6.322 3.112,-13.065 5.57,-19.963 C -128.911,-10.679 -56.949,11.966 0,0"
                 style="fill:#ffffff;fill-opacity:1;fill-rule:nonzero;stroke:none"
                 id="path150"
                 inkscape:connector-curvature="0" />
            </g>
          </g>
        </g>
      </g>
      <g
         id="g158"
         transform="matrix(0.26458333,0,0,-0.26458333,-70.375225,246.02684)">
        <path
           d="m 0,0 c 0,-3.919 -3.177,-7.097 -7.097,-7.097 -3.92,0 -7.097,3.178 -7.097,7.097 0,3.92 3.177,7.097 7.097,7.097 C -3.177,7.097 0,3.92 0,0"
           style="fill:#414142;fill-opacity:1;fill-rule:nonzero;stroke:none"
           id="path160"
           inkscape:connector-curvature="0" />
      </g>
      <g
         id="g162"
         transform="matrix(0.26458333,0,0,-0.26458333,-47.601425,256.17105)">
        <path
           d="m 0,0 c 0,-2.93 -2.375,-5.305 -5.305,-5.305 -2.93,0 -5.306,2.375 -5.306,5.305 0,2.931 2.376,5.306 5.306,5.306 C -2.375,5.306 0,2.931 0,0"
           style="fill:#414142;fill-opacity:1;fill-rule:nonzero;stroke:none"
           id="path164"
           inkscape:connector-curvature="0" />
      </g>
      <g
         id="g166"
         transform="matrix(0.26458333,0,0,-0.26458333,-76.342455,241.40671)">
        <path
           d="m 0,0 c -9.724,32.644 -45.201,57.444 -57.684,51.805 -9.456,-4.272 -2.537,-26.74 12.226,-42.27 14.764,-15.53 31.284,-19.649 31.284,-19.649 z"
           style="fill:#fff2be;fill-opacity:1;fill-rule:nonzero;stroke:none"
           id="path168"
           inkscape:connector-curvature="0" />
      </g>
      <g
         id="g170"
         transform="matrix(0.26458333,0,0,-0.26458333,-217.85448,424.75172)">
        <g
           id="g172" />
        <g
           id="g184">
          <g
             clip-path="url(#clipPath176)"
             id="g182"
             style="opacity:0.05000311">
            <g
               transform="translate(639.9756,603.9956)"
               id="g180">
              <path
                 d="m 0,0 c 3.785,4.584 9.442,11.231 12.182,19.105 -65.033,51.499 -136.247,7.252 -183.661,-55.498 14.398,-21.774 31.045,-38.199 43.195,-38.199 5.161,27.279 48.947,67.744 77.188,67.418 C -22.855,-7.501 -7.373,-8.93 0,0"
                 style="fill:#231f20;fill-opacity:1;fill-rule:nonzero;stroke:none"
                 id="path178"
                 inkscape:connector-curvature="0" />
            </g>
          </g>
        </g>
      </g>
    </g>
  </g>
</svg>
