<?xml version="1.0" encoding="UTF-8" standalone="no"?>
<!-- Created with Inkscape (http://www.inkscape.org/) -->

<svg
   xmlns:dc="http://purl.org/dc/elements/1.1/"
   xmlns:cc="http://creativecommons.org/ns#"
   xmlns:rdf="http://www.w3.org/1999/02/22-rdf-syntax-ns#"
   xmlns:svg="http://www.w3.org/2000/svg"
   xmlns="http://www.w3.org/2000/svg"
   xmlns:sodipodi="http://sodipodi.sourceforge.net/DTD/sodipodi-0.dtd"
   xmlns:inkscape="http://www.inkscape.org/namespaces/inkscape"
   width="256"
   height="256"
   viewBox="0 0 67.733331 67.733334"
   version="1.1"
   id="svg8"
   inkscape:version="0.92.4 5da689c313, 2019-01-14"
   sodipodi:docname="9.svg"
   inkscape:export-filename="/home/mega/Downloads/pestrez/pastrezVlist6.png"
   inkscape:export-xdpi="300.13"
   inkscape:export-ydpi="300.13">
  <defs
     id="defs2">
    <clipPath
       clipPathUnits="userSpaceOnUse"
       id="clipPath376">
      <path
         d="M 439.155,211.341 H 622.182 V 148.563 H 439.155 Z"
         id="path374"
         inkscape:connector-curvature="0" />
    </clipPath>
    <clipPath
       clipPathUnits="userSpaceOnUse"
       id="clipPath360">
      <path
         d="M 451.648,98.0918 H 648.649 V 27.7085 H 451.648 Z"
         id="path358"
         inkscape:connector-curvature="0" />
    </clipPath>
    <clipPath
       clipPathUnits="userSpaceOnUse"
       id="clipPath332">
      <path
         d="M 150.719,190.401 H 298.436 V 28.6133 H 150.719 Z"
         id="path330"
         inkscape:connector-curvature="0" />
    </clipPath>
    <clipPath
       clipPathUnits="userSpaceOnUse"
       id="clipPath304">
      <path
         d="M 111.562,252.282 H 225.738 V 27.8467 H 111.562 Z"
         id="path302"
         inkscape:connector-curvature="0" />
    </clipPath>
    <clipPath
       clipPathUnits="userSpaceOnUse"
       id="clipPath480">
      <path
         d="M 102.233,464.005 H 277.328 V 320.986 H 102.233 Z"
         id="path478"
         inkscape:connector-curvature="0" />
    </clipPath>
    <clipPath
       clipPathUnits="userSpaceOnUse"
       id="clipPath464">
      <path
         d="M 151.24,420.215 H 310.071 V 292.35 H 151.24 Z"
         id="path462"
         inkscape:connector-curvature="0" />
    </clipPath>
    <clipPath
       clipPathUnits="userSpaceOnUse"
       id="clipPath284">
      <path
         d="M 509.949,423.313 H 640.813 V 282.349 H 509.949 Z"
         id="path282"
         inkscape:connector-curvature="0" />
    </clipPath>
    <clipPath
       clipPathUnits="userSpaceOnUse"
       id="clipPath252">
      <path
         d="M 449.58,450.136 H 611.43 V 305.081 H 449.58 Z"
         id="path250"
         inkscape:connector-curvature="0" />
    </clipPath>
    <clipPath
       clipPathUnits="userSpaceOnUse"
       id="clipPath424">
      <path
         d="M 785.318,493.44 H 906.564 V 292.468 H 785.318 Z"
         id="path422"
         inkscape:connector-curvature="0" />
    </clipPath>
    <clipPath
       clipPathUnits="userSpaceOnUse"
       id="clipPath408">
      <path
         d="M 833.697,434.733 H 943.555 V 295.06 H 833.697 Z"
         id="path406"
         inkscape:connector-curvature="0" />
    </clipPath>
    <clipPath
       clipPathUnits="userSpaceOnUse"
       id="clipPath228">
      <path
         d="M 128.107,631.673 H 324.886 V 529.404 H 128.107 Z"
         id="path226"
         inkscape:connector-curvature="0" />
    </clipPath>
    <clipPath
       clipPathUnits="userSpaceOnUse"
       id="clipPath200">
      <path
         d="M 95.4766,762.292 H 247.998 V 621.337 H 95.4766 Z"
         id="path198"
         inkscape:connector-curvature="0" />
    </clipPath>
    <clipPath
       clipPathUnits="userSpaceOnUse"
       id="clipPath424-3">
      <path
         d="M 785.318,493.44 H 906.564 V 292.468 H 785.318 Z"
         id="path422-5"
         inkscape:connector-curvature="0" />
    </clipPath>
    <clipPath
       clipPathUnits="userSpaceOnUse"
       id="clipPath408-6">
      <path
         d="M 833.697,434.733 H 943.555 V 295.06 H 833.697 Z"
         id="path406-2"
         inkscape:connector-curvature="0" />
    </clipPath>
    <clipPath
       clipPathUnits="userSpaceOnUse"
       id="clipPath176">
      <path
         d="M 468.497,645.694 H 652.158 V 529.404 H 468.497 Z"
         id="path174"
         inkscape:connector-curvature="0" />
    </clipPath>
    <clipPath
       clipPathUnits="userSpaceOnUse"
       id="clipPath148">
      <path
         d="M 439.44,713.766 H 627.456 V 614.131 H 439.44 Z"
         id="path146"
         inkscape:connector-curvature="0" />
    </clipPath>
    <clipPath
       clipPathUnits="userSpaceOnUse"
       id="clipPath124">
      <path
         d="M 780.906,617.775 H 995.258 V 529.404 H 780.906 Z"
         id="path122"
         inkscape:connector-curvature="0" />
    </clipPath>
    <clipPath
       clipPathUnits="userSpaceOnUse"
       id="clipPath88">
      <path
         d="M 774.397,724.678 H 956.352 V 647.461 H 774.397 Z"
         id="path86"
         inkscape:connector-curvature="0" />
    </clipPath>
  </defs>
  <sodipodi:namedview
     id="base"
     pagecolor="#4c4c4c"
     bordercolor="#666666"
     borderopacity="1.0"
     inkscape:pageopacity="0"
     inkscape:pageshadow="2"
     inkscape:zoom="1.28"
     inkscape:cx="97.009415"
     inkscape:cy="81.645599"
     inkscape:document-units="mm"
     inkscape:current-layer="g9449"
     showgrid="false"
     inkscape:window-width="1920"
     inkscape:window-height="1018"
     inkscape:window-x="320"
     inkscape:window-y="1112"
     inkscape:window-maximized="1"
     units="px" />
  <metadata
     id="metadata5">
    <rdf:RDF>
      <cc:Work
         rdf:about="">
        <dc:format>image/svg+xml</dc:format>
        <dc:type
           rdf:resource="http://purl.org/dc/dcmitype/StillImage" />
        <dc:title></dc:title>
      </cc:Work>
    </rdf:RDF>
  </metadata>
  <g
     inkscape:label="Layer 1"
     inkscape:groupmode="layer"
     id="layer1"
     transform="translate(107.47122,-222.21732)">
    <g
       id="g9449">
      <text
         id="text4963"
         y="71.524643"
         x="269.77972"
         style="line-height:0%;font-family:Cantarell;-inkscape-font-specification:'Cantarell, Normal';letter-spacing:0.08202086px;word-spacing:-0.29104167px;writing-mode:lr-tb;stroke-width:0.26458332"
         xml:space="preserve"><tspan
           style="font-size:7.05555487px;line-height:0;stroke-width:0.26458332"
           y="71.524643"
           x="269.77972"
           id="tspan4961"
           sodipodi:role="line"> </tspan></text>
      <text
         id="text4967"
         y="111.94916"
         x="300.38208"
         style="line-height:0%;font-family:Cantarell;-inkscape-font-specification:'Cantarell, Normal';letter-spacing:0.08202086px;word-spacing:-0.29104167px;writing-mode:lr-tb;stroke-width:0.26458332"
         xml:space="preserve"><tspan
           style="font-style:normal;font-variant:normal;font-weight:normal;font-stretch:normal;font-size:7.05555534px;line-height:0;font-family:Neckar;-inkscape-font-specification:'Neckar, Normal';font-variant-ligatures:normal;font-variant-caps:normal;font-variant-numeric:normal;font-feature-settings:normal;text-align:start;word-spacing:-0.5185833px;writing-mode:lr-tb;text-anchor:start;stroke-width:0.26458332"
           y="111.94916"
           x="300.38208"
           id="tspan4965"
           sodipodi:role="line"> </tspan></text>
      <flowRoot
         style="line-height:0.01%;font-family:Cantarell;-inkscape-font-specification:'Cantarell, Normal';letter-spacing:0.31000009px;word-spacing:-1.10000002px;writing-mode:lr-tb"
         id="flowRoot20476"
         xml:space="preserve"><flowRegion
           id="flowRegion20478"><rect
             y="130.50426"
             x="1244.5079"
             height="574.17072"
             width="797.61646"
             id="rect20480" /></flowRegion><flowPara
           id="flowPara20482"
           style="font-size:26.66666603px;line-height:0"> </flowPara></flowRoot>      <flowRoot
         style="line-height:0.01%;font-family:Cantarell;-inkscape-font-specification:'Cantarell, Normal';letter-spacing:0.31000009px;word-spacing:-1.10000002px;writing-mode:lr-tb"
         id="flowRoot20492"
         xml:space="preserve"><flowRegion
           id="flowRegion20494"><rect
             y="-2.4318113"
             x="1945.9579"
             height="149.90663"
             width="214.96046"
             id="rect20496" /></flowRegion><flowPara
           id="flowPara20498"
           style="font-size:26.66666603px;line-height:0"> </flowPara></flowRoot>      <text
         id="text9514"
         y="28.013163"
         x="404.76212"
         style="line-height:0%;font-family:Cantarell;-inkscape-font-specification:'Cantarell, Normal';letter-spacing:0.08202086px;word-spacing:-0.29104167px;writing-mode:lr-tb;stroke-width:0.26458332"
         xml:space="preserve"><tspan
           style="font-size:7.05555487px;line-height:0;stroke-width:0.26458332"
           y="28.013163"
           x="404.76212"
           id="tspan9512"
           sodipodi:role="line"> </tspan></text>
      <g
         id="g74"
         transform="matrix(0.26458333,0,0,-0.26458333,-66.206002,235.3225)">
        <path
           d="m 0,0 c 7.073,9.41 28.001,10.988 38.788,4.595 10.785,-6.393 19.117,-2.056 19.117,-2.056 2.057,1.299 4.5,-0.968 2.121,-2.612 -2.38,-1.644 -9.73,-9.135 -23.537,-5.047 -13.806,4.087 -22.156,-3.188 -23.663,-8.585 -1.509,-5.396 -9.572,-5.436 -15.275,0.332 C -6.096,-9.683 -2.999,-3.988 0,0"
           style="fill:#e0cbb7;fill-opacity:1;fill-rule:nonzero;stroke:none"
           id="path76"
           inkscape:connector-curvature="0" />
      </g>
      <g
         id="g78"
         transform="matrix(0.26458333,0,0,-0.26458333,-102.93091,239.96655)">
        <path
           d="m 0,0 c 20.283,0 84.821,7.744 104.367,20.652 19.546,12.908 34.666,15.857 44.992,4.794 10.326,-11.063 3.319,-22.864 15.489,-34.666 12.17,-11.801 14.382,-22.864 15.858,-36.878 1.475,-14.015 19.176,-33.56 30.609,-43.149 11.433,-9.588 16.965,-15.12 8.482,-27.29 -8.482,-12.17 -27.29,-16.964 -37.247,-16.964 -9.958,0 -16.227,8.113 -39.829,7.745 -23.602,-0.369 -40.567,6.637 -52.737,21.389 -8.851,-18.071 -51.472,-31.715 -62.536,-58.637 C 11.727,-142.733 -9.131,-106.105 0,0"
           style="fill:#fff2be;fill-opacity:1;fill-rule:nonzero;stroke:none"
           id="path80"
           inkscape:connector-curvature="0" />
      </g>
      <g
         id="g82"
         transform="matrix(0.26458333,0,0,-0.26458333,-308.41022,423.16608)">
        <g
           id="g84" />
        <g
           id="g96">
          <g
             clip-path="url(#clipPath88)"
             id="g94"
             style="opacity:0.39999402">
            <g
               transform="translate(774.397,647.4614)"
               id="g92">
              <path
                 d="m 0,0 c 50.935,22.104 117.089,17.989 181.955,6.444 -1.687,10.593 -5.001,19.695 -14.889,29.283 -12.17,11.801 -5.164,23.602 -15.489,34.666 C 141.25,81.456 126.13,78.506 106.584,65.598 87.039,52.69 22.501,44.946 2.218,44.946 0.788,28.327 0.093,13.414 0,0"
                 style="fill:#ffffff;fill-opacity:1;fill-rule:nonzero;stroke:none"
                 id="path90"
                 inkscape:connector-curvature="0" />
            </g>
          </g>
        </g>
      </g>
      <g
         id="g98"
         transform="matrix(0.26458333,0,0,-0.26458333,-47.020483,263.57971)">
        <path
           d="M 0,0 C -9.293,7.795 -22.729,22.167 -28.224,34.801 -41.978,3.444 -43.673,-29.345 -2.507,-36.95 c 4.319,2.494 8.212,5.675 10.989,9.659 C 16.965,-15.121 11.433,-9.588 0,0 m -169.1,93.136 c -17.461,-2.527 -33.721,-3.889 -42.215,-3.889 -1.688,-19.615 -2.349,-36.849 -2.209,-52.051 23.126,-3.133 46.939,18.782 44.424,55.94 m 40.838,-63.95 c -56.747,11.067 -68.768,-54.438 -35.488,-79.032 16.403,12.983 36.631,22.908 42.419,34.725 9.173,-11.118 21.075,-17.833 36.485,-20.309 12.864,23.918 4.565,55.258 -43.416,64.616"
           style="fill:#dfcfb7;fill-opacity:1;fill-rule:nonzero;stroke:none"
           id="path100"
           inkscape:connector-curvature="0" />
      </g>
      <g
         id="g102"
         transform="matrix(0.26458333,0,0,-0.26458333,-84.353089,249.48612)">
        <path
           d="M 0,0 C -6.572,6.986 -1.609,23.5 15.774,34.639 26.179,41.306 39.738,48.271 50.2,49.496 68.828,51.676 67.839,38.915 65.477,33.316 64.295,30.517 56.726,17.642 46.521,8.503 33.458,-3.193 6.572,-6.985 0,0"
           style="fill:#414142;fill-opacity:1;fill-rule:nonzero;stroke:none"
           id="path104"
           inkscape:connector-curvature="0" />
      </g>
      <g
         id="g106"
         transform="matrix(0.26458333,0,0,-0.26458333,-67.848536,232.66389)">
        <path
           d="m 0,0 c 5.263,10.529 25.565,15.851 37.326,11.505 11.761,-4.346 19.175,1.42 19.175,1.42 1.79,1.648 4.602,-0.142 2.557,-2.187 C 57.013,8.692 51.131,0 36.815,1.534 22.499,3.068 15.596,-5.591 15.084,-11.171 14.572,-16.75 6.648,-18.242 0,-13.595 -4.252,-10.622 -2.231,-4.463 0,0"
           style="fill:#ecd6c0;fill-opacity:1;fill-rule:nonzero;stroke:none"
           id="path108"
           inkscape:connector-curvature="0" />
      </g>
      <g
         id="g110"
         transform="matrix(0.26458333,0,0,-0.26458333,-60.435043,248.58474)">
        <path
           d="m 0,0 c 0,-3.814 -3.092,-6.907 -6.906,-6.907 -3.815,0 -6.907,3.093 -6.907,6.907 0,3.814 3.092,6.906 6.907,6.906 C -3.092,6.906 0,3.814 0,0"
           style="fill:#414142;fill-opacity:1;fill-rule:nonzero;stroke:none"
           id="path112"
           inkscape:connector-curvature="0" />
      </g>
      <g
         id="g114"
         transform="matrix(0.26458333,0,0,-0.26458333,-45.970431,267.93319)">
        <path
           d="m 0,0 c 0,-2.624 -2.127,-4.751 -4.751,-4.751 -2.624,0 -4.751,2.127 -4.751,4.751 0,2.624 2.127,4.751 4.751,4.751 C -2.127,4.751 0,2.624 0,0"
           style="fill:#414142;fill-opacity:1;fill-rule:nonzero;stroke:none"
           id="path116"
           inkscape:connector-curvature="0" />
      </g>
      <g
         id="g118"
         transform="matrix(0.26458333,0,0,-0.26458333,-308.41022,423.16608)">
        <g
           id="g120" />
        <g
           id="g132">
          <g
             clip-path="url(#clipPath124)"
             id="g130"
             style="opacity:0.05000311">
            <g
               transform="translate(995.2578,574.3848)"
               id="g128">
              <path
                 d="m 0,0 c -67.501,64.061 -158.543,49.839 -214.352,4.817 6.037,-25.251 15.246,-39.598 23.157,-49.798 11.064,26.922 53.685,40.566 62.536,58.637 12.17,-14.752 29.135,-21.758 52.737,-21.389 23.602,0.368 29.871,-7.745 39.829,-7.745 9.536,0 27.166,4.416 36.093,15.478"
                 style="fill:#231f20;fill-opacity:1;fill-rule:nonzero;stroke:none"
                 id="path126"
                 inkscape:connector-curvature="0" />
            </g>
          </g>
        </g>
      </g>
    </g>
  </g>
</svg>
